Coordinates
version=1
nRows=6
nColumns=34
inDegrees=yes

Units are S.I. units (second, meters, Newtons, ...)
Angles are in degrees.

endheader
time	pelvis_tilt	pelvis_list	pelvis_rotation	pelvis_tx	pelvis_ty	pelvis_tz	hip_flexion_r	hip_adduction_r	hip_rotation_r	knee_angle_r	ankle_angle_r	subtalar_angle_r	mtp_angle_r	hip_flexion_l	hip_adduction_l	hip_rotation_l	knee_angle_l	socket_flexion	socket_adduction	socket_rotation	socket_tx	socket_ty	socket_tz	pros_ankle_rx	pros_ankle_ry	pros_ankle_rz	pros_ankle_tx	pros_ankle_ty	pros_ankle_tz	foot_flex	lumbar_extension	lumbar_bending	lumbar_rotation
      0.90000000	     -4.90798924	     -5.44998694	      0.86859101	      0.39946620	      1.02395523	      0.38347439	     22.45345567	      7.95861918	     -2.99120387	    -26.62497581	     10.46462199	      6.57384737	     10.42476922	     23.25989930	    -10.92892636	      1.72517742	    -41.23546054	     28.74875085	     -0.42176853	    -11.32842503	      0.10795404	      0.00779716	     -0.00245018	      0.00000000	      0.00000000	      0.00000000	      0.00000000	      0.00000000	      0.00000000	     -2.71586344	    -13.29238914	      3.54066695	      2.28328157
      0.90416667	     -4.88906530	     -5.27759109	      0.98962523	      0.40494857	      1.02522964	      0.38269351	     22.01577119	      7.51212540	     -3.73478617	    -26.51363812	     10.77576277	      7.97989289	     11.04846102	     23.65695932	    -10.56604365	      2.30945579	    -41.24108785	     28.28157892	      0.04430801	    -11.34432853	      0.10597886	      0.00619117	     -0.00430574	      0.00000000	      0.00000000	      0.00000000	      0.00000000	      0.00000000	      0.00000000	     -2.71855927	    -13.29840623	      3.44685692	      2.22339299
      0.90833333	     -4.91666189	     -5.13318757	      0.84280192	      0.41010361	      1.02642751	      0.38273523	     21.58428422	      7.37523854	     -3.71260516	    -26.28697954	     10.83474938	      8.03694006	     11.06019422	     24.16241836	    -10.41275737	      2.39313192	    -41.00259287	     28.10278661	      0.32879518	    -11.12095355	      0.10515607	      0.00590939	     -0.00546706	      0.00000000	      0.00000000	      0.00000000	      0.00000000	      0.00000000	      0.00000000	     -2.71082744	    -13.33777255	      3.35230790	      2.25817250
      0.91250000	     -4.95706769	     -5.01420012	      0.80321931	      0.41526547	      1.02768352	      0.38267861	     21.08534143	      7.26816983	     -3.64817988	    -25.90203349	     10.90474515	      8.17431165	     11.07937394	     24.70181879	    -10.23193425	      2.57017818	    -40.73873105	     27.89445896	      0.61055969	    -10.79799293	      0.10417947	      0.00564401	     -0.00657387	      0.00000000	      0.00000000	      0.00000000	      0.00000000	      0.00000000	      0.00000000	     -2.72083507	    -13.33399540	      3.12687734	      2.32361480
      0.91666667	     -4.99299735	     -4.91142816	      0.71715161	      0.42049851	      1.02890765	      0.38264276	     20.60229132	      7.16869294	     -3.63223844	    -25.56107480	     10.94910687	      8.31501360	     11.09722141	     25.21341317	    -10.08295560	      2.70470011	    -40.45814056	     27.66504291	      0.86870215	    -10.54517197	      0.10321138	      0.00545046	     -0.00751648	      0.00000000	      0.00000000	      0.00000000	      0.00000000	      0.00000000	      0.00000000	     -2.72573329	    -13.32040000	      2.96215884	      2.39373593
      0.92083333	     -5.03319863	     -4.81668525	      0.64442581	      0.42572508	      1.03010770	      0.38257365	     20.11490598	      7.07564644	     -3.61592302	    -25.19780471	     10.97992493	      8.48832896	     11.11770370	     25.71207010	     -9.92697642	      2.85239558	    -40.14614151	     27.40425091	      1.11999328	    -10.27396969	      0.10213008	      0.00517194	     -0.00840951	      0.00000000	      0.00000000	      0.00000000	      0.00000000	      0.00000000	      0.00000000	     -2.73067002	    -13.29744253	      2.80076718	      2.47796090
